<svg width="100" height="100" viewBox="0 0 100 100" fill="none" xmlns="http://www.w3.org/2000/svg">
<rect width="100" height="100" rx="24" fill="#004E87"/>
<path d="M65 40C66.3261 40 67.5979 39.4732 68.5355 38.5355C69.4732 37.5979 70 36.3261 70 35C70 33.6739 69.4732 32.4021 68.5355 31.4645C67.5979 30.5268 66.3261 30 65 30C65 28.6739 64.4732 27.4021 63.5355 26.4645C62.5979 25.5268 61.3261 25 60 25C58.6739 25 57.4021 25.5268 56.4645 26.4645C55.5268 27.4021 55 28.6739 55 30C55 28.6739 54.4732 27.4021 53.5355 26.4645C52.5979 25.5268 51.3261 25 50 25C48.6739 25 47.4021 25.5268 46.4645 26.4645C45.5268 27.4021 45 28.6739 45 30C45 28.6739 44.4732 27.4021 43.5355 26.4645C42.5979 25.5268 41.3261 25 40 25C38.6739 25 37.4021 25.5268 36.4645 26.4645C35.5268 27.4021 35 28.6739 35 30C33.6739 30 32.4021 30.5268 31.4645 31.4645C30.5268 32.4021 30 33.6739 30 35C30 36.3261 30.5268 37.5979 31.4645 38.5355C32.4021 39.4732 33.6739 40 35 40" stroke="white" stroke-width="2" stroke-linecap="round" stroke-linejoin="round"/>
<path d="M45 75L42.5 40" stroke="white" stroke-width="2" stroke-linecap="round" stroke-linejoin="round"/>
<path d="M55 75L57.5 40" stroke="white" stroke-width="2" stroke-linecap="round" stroke-linejoin="round"/>
<path d="M70 40C71.25 40 72.25 41 72 42.5L65.5 72.5C65.25 73.75 63.75 75 62.5 75H37.5C36 75 34.75 74 34.5 72.5L28 42.5C27.75 41 28.75 40 30 40H70Z" stroke="white" stroke-width="2" stroke-linecap="round" stroke-linejoin="round"/>
</svg>
